<?xml version="1.0" encoding="utf-8"?>
<!-- Generator: Adobe Illustrator 14.0.0, SVG Export Plug-In . SVG Version: 6.00 Build 43363)  -->
<!DOCTYPE svg PUBLIC "-//W3C//DTD SVG 1.0//EN" "http://www.w3.org/TR/2001/REC-SVG-20010904/DTD/svg10.dtd">
<svg version="1.0" id="Layer_1" xmlns="http://www.w3.org/2000/svg" xmlns:xlink="http://www.w3.org/1999/xlink" x="0px" y="0px"
	 width="100px" height="100px" viewBox="0 0 100 100" enable-background="new 0 0 100 100" xml:space="preserve">
<path d="M4.744,4.743c-6.325,6.325-6.325,16.578,0,22.903L27.646,4.743C21.322-1.582,11.068-1.582,4.744,4.743z"/>
<path d="M60.893,83.794L100,100L83.795,60.893l-49.881-49.88L11.012,33.914L60.893,83.794z M66.105,73.646
	c2.082-2.084,6.023-1.517,6.893-0.647c-0.868-0.868-1.436-4.812,0.646-6.894s6.242-2.822,6.242-2.822l9.312,22.47l-3.446,3.446
	l-22.47-9.311C63.282,79.889,64.023,75.729,66.105,73.646z"/>
</svg>
