<?xml version="1.0" encoding="UTF-8" standalone="no"?>
<svg
   xmlns:cc="http://creativecommons.org/ns#"
   xmlns:rdf="http://www.w3.org/1999/02/22-rdf-syntax-ns#"
   xmlns:svg="http://www.w3.org/2000/svg"
   xmlns="http://www.w3.org/2000/svg"
   version="1.1"
   viewBox="0 0 744.09448819 1052.3622047"
   height="40px"
   width="40px">
  <g
     style="display:inline"
     id="layer1"
     transform="matrix(4.9383994,0,0,5.2618096,-1527.6262,-2214.8726)">
    <path
       id="path3511"
       d="m 278.125,520.93362 0,-100 79.0625,0.0138 c 43.48437,0.008 81.17062,0.36221 83.74721,0.7881 3.3747,0.55781 6.95755,2.85698 12.8125,8.22198 l 8.12779,7.44764 0,16.13926 0,16.13926 -10,0 -10,0 -0.0158,-10.3125 -0.0157,-10.3125 -6.77054,-5.9375 -6.77057,-5.9375 -66.3387,0 -66.33869,0 0,83.75 0,83.75 24.54911,0 24.54912,0 -0.77696,6.5625 c -0.47778,4.0355 -1.59948,7.16416 -2.91302,8.125 -1.57019,1.14856 -10.18586,1.5625 -32.52216,1.5625 l -30.38609,0 0,-100 z m 75.01385,98.75856 c -0.95897,-0.59267 0.76874,-9.48251 5.61079,-28.86997 l 6.99644,-28.01359 39.00196,-39.14467 c 21.45108,-21.52956 40.5209,-39.95144 42.37738,-40.9375 1.87165,-0.99411 6.78352,-1.79283 11.02537,-1.79283 l 7.64993,0 12.71105,12.39542 12.71105,12.39542 0,12.61571 0,12.6157 -39.44885,39.44886 -39.44886,39.44885 -19.28755,4.7892 c -18.3445,4.55503 -36.89916,6.90323 -39.89871,5.0494 z m 33.55295,-18.06936 c 3.68049,-0.97963 6.89841,-1.98775 7.15094,-2.24027 0.25252,-0.25253 -3.66299,-4.55375 -8.70115,-9.55828 l -9.16028,-9.09915 -2.11015,8.40052 c -2.09814,8.35273 -2.09435,8.41733 0.66474,11.35425 3.24463,3.45376 3.41414,3.46969 12.1559,1.14293 z m 66.1351,-79.11794 -5.26283,-5.36242 -24.7019,24.67873 -24.70189,24.67874 5.26282,5.36243 5.26282,5.36242 24.70191,-24.67873 24.70189,-24.67875 -5.26282,-5.36242 z"
       style="fill:#fefefe"
       inkscape:connector-curvature="0" />
  </g>
</svg>
