<?xml version="1.0" encoding="UTF-8" standalone="no"?>
<!-- Generator: Adobe Illustrator 14.0.0, SVG Export Plug-In . SVG Version: 6.00 Build 43363)  -->

<svg
   xmlns:dc="http://purl.org/dc/elements/1.1/"
   xmlns:cc="http://creativecommons.org/ns#"
   xmlns:rdf="http://www.w3.org/1999/02/22-rdf-syntax-ns#"
   xmlns:svg="http://www.w3.org/2000/svg"
   xmlns="http://www.w3.org/2000/svg"
   xmlns:sodipodi="http://sodipodi.sourceforge.net/DTD/sodipodi-0.dtd"
   xmlns:inkscape="http://www.inkscape.org/namespaces/inkscape"
   version="1.0"
   id="Layer_1"
   x="0px"
   y="0px"
   width="100px"
   height="83.84px"
   viewBox="0 0 100 83.84"
   enable-background="new 0 0 100 83.84"
   xml:space="preserve"
   inkscape:version="0.48.1 r9760"
   sodipodi:docname="noun_project_293_6.svg"><metadata
   id="metadata9"><rdf:RDF><cc:Work
       rdf:about=""><dc:format>image/svg+xml</dc:format><dc:type
         rdf:resource="http://purl.org/dc/dcmitype/StillImage" /><dc:title></dc:title></cc:Work></rdf:RDF></metadata><defs
   id="defs7" /><sodipodi:namedview
   pagecolor="#ffffff"
   bordercolor="#666666"
   borderopacity="1"
   objecttolerance="10"
   gridtolerance="10"
   guidetolerance="10"
   inkscape:pageopacity="0"
   inkscape:pageshadow="2"
   inkscape:window-width="915"
   inkscape:window-height="535"
   id="namedview5"
   showgrid="false"
   inkscape:zoom="3.1250001"
   inkscape:cx="50"
   inkscape:cy="41.919998"
   inkscape:window-x="2298"
   inkscape:window-y="283"
   inkscape:window-maximized="0"
   inkscape:current-layer="Layer_1" />
<path
   d="M99.585,49.144c-6.011-6.031-12.021-12.061-18.032-18.092c-0.306-0.307-0.52-0.484-0.665-0.578  c0.021-0.076,0.035-0.181,0.035-0.335c0-2.175,0-4.351,0-6.526c0-4.371,0-8.741,0-13.112c0-0.794-0.663-1.457-1.457-1.457  c-3.158,0-6.315,0-9.474,0c-0.794,0-1.457,0.663-1.457,1.457c0,2.497,0,4.993,0,7.49C62.7,12.136,56.865,6.281,51.03,0.426  c-0.304-0.304-0.645-0.424-0.975-0.424C50.037,0,50.019,0.001,50,0c-0.019,0.001-0.037,0-0.056,0.002  c-0.33,0-0.671,0.12-0.975,0.424C32.785,16.665,16.6,32.904,0.415,49.144c-0.897,0.899-0.243,2.486,1.03,2.486  c3.322,0,6.646,0,9.969,0c0,10.251,0,20.502,0,30.753c0,0.794,0.663,1.457,1.457,1.457c10.353,0,19.735,0,30.089,0  c0.793,0,1.456-0.663,1.456-1.457c0-7.171,0-14.342,0-21.514c3.075,0,8.093,0,11.168,0c0,7.172,0,14.343,0,21.514  c0,0.794,0.663,1.457,1.456,1.457c10.354,0,19.736,0,30.09,0c0.793,0,1.456-0.663,1.456-1.457c0-10.251,0-20.502,0-30.753  c3.323,0,6.646,0,9.969,0C99.827,51.63,100.482,50.043,99.585,49.144z"
   id="path3"
   style="fill:#939393;fill-opacity:1" />
</svg>