<?xml version="1.0" encoding="UTF-8" standalone="no"?>
<!-- Generator: Adobe Illustrator 14.0.0, SVG Export Plug-In . SVG Version: 6.00 Build 43363)  -->

<svg
   xmlns:dc="http://purl.org/dc/elements/1.1/"
   xmlns:cc="http://creativecommons.org/ns#"
   xmlns:rdf="http://www.w3.org/1999/02/22-rdf-syntax-ns#"
   xmlns:svg="http://www.w3.org/2000/svg"
   xmlns="http://www.w3.org/2000/svg"
   xmlns:sodipodi="http://sodipodi.sourceforge.net/DTD/sodipodi-0.dtd"
   xmlns:inkscape="http://www.inkscape.org/namespaces/inkscape"
   version="1.0"
   id="Layer_1"
   x="0px"
   y="0px"
   width="100px"
   height="63.145px"
   viewBox="0 0 100 63.145"
   enable-background="new 0 0 100 63.145"
   xml:space="preserve"
   inkscape:version="0.48.1 r9760"
   sodipodi:docname="mail_stop_black.svg"
   inkscape:export-filename="/home/manuel/Projekte/diaspora/public/images/icons/mail_stop_black.png"
   inkscape:export-xdpi="10.82395"
   inkscape:export-ydpi="10.82395"><metadata
   id="metadata11"><rdf:RDF><cc:Work
       rdf:about=""><dc:format>image/svg+xml</dc:format><dc:type
         rdf:resource="http://purl.org/dc/dcmitype/StillImage" /><dc:title></dc:title></cc:Work></rdf:RDF></metadata><defs
   id="defs9" /><sodipodi:namedview
   pagecolor="#ffffff"
   bordercolor="#666666"
   borderopacity="1"
   objecttolerance="10"
   gridtolerance="10"
   guidetolerance="10"
   inkscape:pageopacity="0"
   inkscape:pageshadow="2"
   inkscape:window-width="1366"
   inkscape:window-height="744"
   id="namedview7"
   showgrid="false"
   inkscape:zoom="4.1491804"
   inkscape:cx="37.803368"
   inkscape:cy="17.970803"
   inkscape:window-x="0"
   inkscape:window-y="24"
   inkscape:window-maximized="1"
   inkscape:current-layer="Layer_1" />
<path
   d="M98.706,9.805C82.471,21.644,66.235,33.482,50.001,45.321L50,45.32l-0.001,0.001C33.765,33.482,17.529,21.644,1.294,9.805  C0.751,9.409,0,9.946,0,10.548c0,17.246,0,34.491,0,51.737c0,0.468,0.392,0.859,0.86,0.859c16.379,0,32.759,0,49.14,0  c16.38,0,32.761,0,49.14,0c0.469,0,0.86-0.392,0.86-0.859c0-17.246,0-34.492,0-51.737C100,9.946,99.249,9.409,98.706,9.805z"
   id="path3"
   style="fill:#000000;fill-opacity:1" />
<path
   d="M0.426,1.603c16.38,11.943,32.76,23.887,49.141,35.831c0.111,0.082,0.272,0.122,0.434,0.122s0.322-0.04,0.434-0.122  C66.814,25.489,83.194,13.546,99.574,1.603C100.231,1.123,100.058,0,99.14,0C82.76,0,66.379,0,50,0S17.24,0,0.86,0  C-0.058,0-0.231,1.123,0.426,1.603z"
   id="path5"
   style="fill:#000000;fill-opacity:1" />
<path
   sodipodi:type="arc"
   style="fill:#000000;fill-opacity:1;stroke:none"
   id="path6784-5"
   sodipodi:cx="-71.580399"
   sodipodi:cy="27.234293"
   sodipodi:rx="23.1371"
   sodipodi:ry="23.1371"
   d="m -48.443298,27.234293 a 23.1371,23.1371 0 1 1 -46.274201,0 23.1371,23.1371 0 1 1 46.274201,0 z"
   transform="matrix(1.5364584,0,0,1.5364584,190.83964,15.516369)"
   inkscape:export-filename="/home/manuel/Projekte/diaspora/public/images/icons/mail_black_crossed.png"
   inkscape:export-xdpi="20.253626"
   inkscape:export-ydpi="20.253626" /><path
   sodipodi:type="arc"
   style="fill:#ffffff;fill-opacity:1;stroke:none"
   id="path6784"
   sodipodi:cx="-71.580399"
   sodipodi:cy="27.234293"
   sodipodi:rx="23.1371"
   sodipodi:ry="23.1371"
   d="m -48.443298,27.234293 a 23.1371,23.1371 0 1 1 -46.274201,0 23.1371,23.1371 0 1 1 46.274201,0 z"
   transform="matrix(1.1683485,0,0,1.1683485,164.49018,25.541581)"
   inkscape:export-filename="/home/manuel/Projekte/diaspora/public/images/icons/mail_black_crossed.png"
   inkscape:export-xdpi="20.253626"
   inkscape:export-ydpi="20.253626" /><rect
   style="fill:#000000;fill-opacity:1;stroke:none"
   id="rect6804"
   width="60.941463"
   height="11.080267"
   x="-10.339529"
   y="91.012123"
   transform="matrix(0.73343031,-0.67976465,0.67976465,0.73343031,0,0)"
   inkscape:export-filename="/home/manuel/Projekte/diaspora/public/images/icons/mail_black_crossed.png"
   inkscape:export-xdpi="20.253626"
   inkscape:export-ydpi="20.253626" /></svg>