<?xml version="1.0" encoding="utf-8"?>
<!-- Generator: Adobe Illustrator 14.0.0, SVG Export Plug-In . SVG Version: 6.00 Build 43363)  -->
<!DOCTYPE svg PUBLIC "-//W3C//DTD SVG 1.0//EN" "http://www.w3.org/TR/2001/REC-SVG-20010904/DTD/svg10.dtd">
<svg version="1.0" id="Layer_1" xmlns="http://www.w3.org/2000/svg" xmlns:xlink="http://www.w3.org/1999/xlink" x="0px" y="0px"
	 width="100px" height="72.956px" viewBox="0 0 100 72.956" enable-background="new 0 0 100 72.956" xml:space="preserve">
<path d="M100,72.956H0V0h100V72.956L100,72.956z M8.804,64.151h82.391V8.804H8.804V64.151L8.804,64.151z"/>
<circle cx="77.185" cy="21.679" r="6.066"/>
<path d="M86.906,57.769c-6.08-7.512-12.161-15.023-18.242-22.536c-0.033-0.041-0.066-0.082-0.1-0.122
	c-0.116-0.144-0.322-0.098-0.444,0c-3.742,2.985-7.484,5.97-11.227,8.955c-6.508-8.08-13.016-16.16-19.524-24.24
	c-1.11-1.378-2.221-2.757-3.331-4.136c-0.123-0.152-0.411-0.107-0.494,0.063c-4.398,9.029-8.797,18.058-13.196,27.087
	c-2.435,4.997-4.869,9.995-7.304,14.992c-0.034,0.07-0.041,0.139-0.029,0.201c0.015,0.132,0.104,0.252,0.264,0.269
	c0.04,0.009,0.08,0.011,0.119,0.004c7.917,0,15.833,0,23.748,0c13.015,0,26.028,0,39.042,0c3.499,0,6.998,0,10.497,0
	C86.98,58.306,87.071,57.973,86.906,57.769z"/>
</svg>
